<svg width="206" height="40" viewBox="0 0 206 40" fill="none" xmlns="http://www.w3.org/2000/svg">
<g clip-path="url(#clip0_53_1517)">
<path d="M18.5752 12.675C17.3877 12.05 16.0877 11.6125 14.7252 11.3625C13.8502 11.2 12.9502 11.125 12.0377 11.125H11.9877C11.0877 11.125 10.1877 11.2 9.3002 11.3625C7.9502 11.6125 6.6377 12.0375 5.4502 12.6625C5.5502 11.975 5.68769 11.3125 5.85019 10.6875C5.98769 10.15 6.1252 9.65 6.2877 9.15C8.0502 3.7125 11.2627 0.6625 12.0127 0C12.7627 0.6625 15.9877 3.7125 17.7252 9.15C17.8877 9.6375 18.0252 10.15 18.1627 10.6875C18.3127 11.325 18.4502 11.975 18.5627 12.675H18.5752Z" fill="#387546"/>
<path d="M21.0746 14.4501C20.3371 13.7376 19.4871 13.1501 18.5746 12.6751C17.3871 12.0501 16.0871 11.6126 14.7246 11.3626C14.8496 11.2376 14.9746 11.1126 15.1121 11.0001C15.9871 10.2001 16.8871 9.60006 17.7371 9.16256C20.2996 7.83756 22.5371 7.90006 23.0371 7.92506C23.0746 8.51256 23.1496 11.4126 21.0746 14.4501Z" fill="#387546"/>
<path d="M9.31212 11.3625C7.96212 11.6125 6.64962 12.0375 5.46212 12.6625C4.54962 13.1375 3.69962 13.7375 2.96212 14.45C0.899617 11.4125 0.962117 8.51252 0.999617 7.92502C1.49962 7.88752 3.73712 7.83752 6.29962 9.16252C7.16212 9.60002 8.04962 10.2 8.92462 11C9.04962 11.1125 9.18712 11.2375 9.31212 11.3625Z" fill="#387546"/>
<path d="M15.0127 19.8624C13.9377 19.8624 13.0752 20.7374 13.0752 21.7999C13.0752 22.8624 13.9502 23.7374 15.0127 23.7374C16.0752 23.7374 16.9502 22.8624 16.9502 21.7999C16.9502 20.7374 16.0752 19.8624 15.0127 19.8624Z" fill="#3E2723"/>
<path d="M9.02539 19.8624C7.95039 19.8624 7.08789 20.7374 7.08789 21.7999C7.08789 22.8624 7.96289 23.7374 9.02539 23.7374C10.0879 23.7374 10.9629 22.8624 10.9629 21.7999C10.9629 20.7374 10.0879 19.8624 9.02539 19.8624Z" fill="#3E2723"/>
<path d="M1.35 28.9249C1.95 28.1874 2.725 27.5125 3.6625 26.9125C3.2625 25.9875 3.025 24.9875 2.975 23.9625C2.975 23.7625 2.9625 23.5625 2.9625 23.375C2.9625 23.2875 2.9625 23.1874 2.9625 23.0999C2.9625 22.6874 3.05 22.2624 3.1625 21.8249C3.825 19.3499 5.9625 16.95 8.5 16.625C9.5875 16.4875 10.8 16.4125 12 16.4375C13.2125 16.425 14.4125 16.4875 15.5 16.625C18.0375 16.9625 20.175 19.3624 20.8375 21.8249C20.95 22.2624 21.025 22.6874 21.0375 23.0999C21.0375 23.1874 21.0375 23.2875 21.0375 23.375C21.0375 23.575 21.0375 23.775 21.025 23.9625C20.975 24.9749 20.75 25.95 20.3625 26.8624C21.3 27.4499 22.0875 28.1124 22.7 28.8499C23.45 27.4 23.9125 25.7999 24 24.1249C24.0125 23.8749 24.025 23.625 24.025 23.375C24.025 23.2625 24.025 23.15 24.025 23.0375C23.875 16.1375 17.9625 12.7 12.025 12.7C12.025 12.7 12.0125 12.7 12 12.7C12 12.7 11.9875 12.7 11.975 12.7C6.075 12.7 0.15 16.15 0 23.0375C0 23.15 0 23.2625 0 23.375C0 23.625 0 23.8749 0.025 24.1249C0.1125 25.8249 0.5875 27.4624 1.3625 28.9249H1.35Z" fill="#FB8C00"/>
<path d="M16.175 31.5625C14.825 32.65 13.625 33.9 12.6125 35.2875C12.4 35.575 12.2 35.8625 12 36.15C11.8 35.85 11.6 35.5625 11.3875 35.2875C10.375 33.9125 9.175 32.6625 7.8375 31.575C6.575 31.8 5.4125 32.25 4.4375 32.7125C4.65 32.8875 4.875 33.0625 5.1 33.2125C8.2875 35.475 11.2375 39.0626 12 40C12.75 39.0626 15.7125 35.475 18.9 33.2125C19.1375 33.0375 19.3625 32.8625 19.5875 32.675C18.6125 32.2125 17.4375 31.775 16.175 31.55V31.5625Z" fill="#FB8C00"/>
<path d="M8.2248 26.3C4.9748 27.225 0.987305 29.1875 0.987305 33.3C0.987305 33.3 4.9873 30.15 9.4998 30.15C10.8873 30.15 11.6873 29.0625 12.0248 28.6625C12.3623 29.0625 13.1498 30.15 14.5498 30.15C19.0623 30.15 23.0623 33.3 23.0623 33.3C23.0623 29.1875 19.0748 27.225 15.8248 26.3C13.3373 25.5875 10.7123 25.5875 8.2373 26.3H8.2248Z" fill="#3E2723"/>
<path d="M41.079 18.5844H38.1346V27.6278H36.986V18.5844H34.0254V17.4519H41.0952V18.5844H41.079Z" fill="#3E2723"/>
<path d="M49.9287 17.4519V27.644H48.7801V23.1142H43.6193V27.644H42.4707V17.4519H43.6193V21.9656H48.7801V17.4519H49.9287Z" fill="#3E2723"/>
<path d="M53.2287 18.5844V21.8038H57.4188V22.9524H53.2287V26.4954H58.0659V27.644H52.0801V17.4519H58.0659V18.5844H53.2287Z" fill="#3E2723"/>
<path d="M78.7086 12.356L71.6712 27.7897H69.8269L62.8057 12.356H67.1899L70.7167 20.6391L74.2597 12.356H78.7086Z" fill="#387546"/>
<path d="M84.2416 16.1254V18.2609H89.095V21.642H84.2416V23.8261H90.1304V27.6279H80.2295V12.3397H90.1304V16.1092H84.2416V16.1254Z" fill="#387546"/>
<path d="M108.105 20.3478C108.105 24.9909 104.594 28 100.258 28C95.4048 28 91.7324 24.3761 91.7324 20.0243C91.7324 15.6724 95.4048 12 100.145 12C102.086 12.0324 104.335 12.8574 105.597 14.0222L103.348 17.0961C102.491 16.3033 101.277 15.7856 100.145 15.7856C97.8639 15.7856 95.874 17.6461 95.874 20.0081C95.874 22.1436 97.5888 24.2305 100.42 24.2305C102.264 24.2305 103.591 23.3407 103.639 21.8847H100.145V18.8595H107.991C108.072 19.3771 108.121 19.8625 108.121 20.3478H108.105Z" fill="#387546"/>
<path d="M125.803 20.3478C125.803 24.9909 122.292 28 117.956 28C113.103 28 109.431 24.3761 109.431 20.0243C109.431 15.6724 113.103 12 117.843 12C119.785 12.0324 122.033 12.8574 123.295 14.0222L121.046 17.0961C120.189 16.3033 118.976 15.7856 117.843 15.7856C115.562 15.7856 113.572 17.6461 113.572 20.0081C113.572 22.1436 115.287 24.2305 118.118 24.2305C119.963 24.2305 121.289 23.3407 121.338 21.8847H117.843V18.8595H125.69C125.77 19.3771 125.819 19.8625 125.819 20.3478H125.803Z" fill="#387546"/>
<path d="M127.793 12.356H131.854V27.6441H127.793V12.356Z" fill="#387546"/>
<path d="M138.519 16.1254V18.2609H143.372V21.642H138.519V23.8261H144.408V27.6279H134.507V12.3397H144.408V16.1092H138.519V16.1254Z" fill="#387546"/>
<path d="M160.505 27.6441L156.638 21.8362V27.6441H152.594V12.356H156.638V18.0506L160.181 12.356H164.84L160.165 19.814L165.423 27.6441H160.505Z" fill="#3E2723"/>
<path d="M166.879 12.356H170.94V27.6441H166.879V12.356Z" fill="#3E2723"/>
<path d="M186.794 12.3398V27.7897H185.499L177.637 20.1699V27.6441H173.576V12.2103H174.887L182.717 19.7978V12.3398H186.777H186.794Z" fill="#3E2723"/>
<path d="M205.156 20.3478C205.156 24.9909 201.646 28 197.31 28C192.457 28 188.784 24.3761 188.784 20.0243C188.784 15.6724 192.457 12 197.197 12C199.138 12.0324 201.387 12.8574 202.649 14.0222L200.4 17.0961C199.543 16.3033 198.329 15.7856 197.197 15.7856C194.916 15.7856 192.926 17.6461 192.926 20.0081C192.926 22.1436 194.641 24.2305 197.472 24.2305C199.316 24.2305 200.643 23.3407 200.691 21.8847H197.197V18.8595H205.043C205.124 19.3771 205.172 19.8625 205.172 20.3478H205.156Z" fill="#3E2723"/>
</g>
<defs>
<clipPath id="clip0_53_1517">
<rect width="206" height="40" fill="white"/>
</clipPath>
</defs>
</svg>
