<svg width="24" height="24" viewBox="0 0 24 24" fill="none" xmlns="http://www.w3.org/2000/svg">
<path fill-rule="evenodd" clip-rule="evenodd" d="M0 3C0 1.61929 1.11929 0.5 2.5 0.5H21.5C22.8807 0.5 24 1.61929 24 3C24 4.38071 22.8807 5.5 21.5 5.5H2.5C1.11929 5.5 0 4.38071 0 3Z" fill="#212121"/>
<path fill-rule="evenodd" clip-rule="evenodd" d="M6 12C6 10.6193 7.11929 9.5 8.5 9.5L21.5 9.5C22.8807 9.5 24 10.6193 24 12C24 13.3807 22.8807 14.5 21.5 14.5L8.5 14.5C7.11929 14.5 6 13.3807 6 12Z" fill="#212121"/>
<path fill-rule="evenodd" clip-rule="evenodd" d="M12 21C12 19.6193 13.1193 18.5 14.5 18.5L21.5 18.5C22.8807 18.5 24 19.6193 24 21C24 22.3807 22.8807 23.5 21.5 23.5L14.5 23.5C13.1193 23.5 12 22.3807 12 21Z" fill="#212121"/>
</svg>
